<svg xmlns="http://www.w3.org/2000/svg" viewBox="0 0 1440 900" role="img" aria-label="Foreplay dashboard">
  <defs>
    <linearGradient id="bg" x1="0" y1="0" x2="1" y2="1">
      <stop offset="0" stop-color="#0C0C10"/>
      <stop offset="1" stop-color="#06060A"/>
    </linearGradient>
    <linearGradient id="accent" x1="0" y1="0" x2="1" y2="0">
      <stop offset="0" stop-color="#a78bfa" stop-opacity="1"/>
      <stop offset="1" stop-color="#a78bfa" stop-opacity="0.35"/>
    </linearGradient>
  </defs>
  <rect width="1440" height="900" fill="url(#bg)"/>
  <rect x="0" y="0" width="1440" height="56" fill="#121218"/>
  <circle cx="28" cy="28" r="6" fill="#ff5f57"/>
  <circle cx="50" cy="28" r="6" fill="#febc2e"/>
  <circle cx="72" cy="28" r="6" fill="#28c840"/>
  <text x="100" y="33" font-family="ui-monospace, monospace" font-size="13" fill="#7e7e8c">foreplay.com/dashboard</text>
  <rect x="60" y="120" width="180" height="14" rx="4" fill="#a78bfa" fill-opacity="0.85"/>
  <text x="60" y="220" font-family="ui-sans-serif, system-ui, sans-serif" font-size="56" font-weight="800" fill="#F5F5F0" letter-spacing="-0.02em">Foreplay</text>
  <text x="60" y="270" font-family="ui-sans-serif, system-ui, sans-serif" font-size="22" fill="#B0B0BC">Foreplay dashboard — sample view</text>
  <rect x="60" y="320" width="200" height="48" rx="8" fill="#a78bfa"/>
  <text x="160" y="351" text-anchor="middle" font-family="ui-sans-serif, sans-serif" font-size="15" font-weight="700" fill="#FFFFFF">Get started →</text>
  <g transform="translate(60, 420)">
    <rect width="600" height="360" rx="14" fill="#15151D" stroke="#232330"/>
    <rect x="24" y="24" width="160" height="28" rx="6" fill="#a78bfa" fill-opacity="0.22"/>
    <text x="34" y="43" font-family="ui-mono, monospace" font-size="11" fill="#a78bfa" font-weight="700">DASHBOARD</text>
    <rect x="24" y="76" width="80" height="10" rx="2" fill="#3a3a48"/>
    <rect x="114" y="76" width="80" height="10" rx="2" fill="#3a3a48"/>
    <rect x="204" y="76" width="80" height="10" rx="2" fill="#3a3a48"/>
    <rect x="24" y="104" width="552" height="1" fill="#232330"/>
    <rect x="24" y="128" width="552" height="64" rx="8" fill="#1a1a22"/>
    <circle cx="52" cy="160" r="14" fill="#a78bfa" fill-opacity="0.6"/>
    <rect x="76" y="144" width="200" height="12" rx="2" fill="#B0B0BC"/>
    <rect x="76" y="164" width="120" height="8" rx="2" fill="#7e7e8c"/>
    <rect x="24" y="204" width="552" height="64" rx="8" fill="#1a1a22"/>
    <circle cx="52" cy="236" r="14" fill="#a78bfa" fill-opacity="0.6"/>
    <rect x="76" y="220" width="240" height="12" rx="2" fill="#B0B0BC"/>
    <rect x="76" y="240" width="140" height="8" rx="2" fill="#7e7e8c"/>
    <rect x="24" y="280" width="552" height="64" rx="8" fill="#1a1a22"/>
    <circle cx="52" cy="312" r="14" fill="#a78bfa" fill-opacity="0.6"/>
    <rect x="76" y="296" width="300" height="12" rx="2" fill="#B0B0BC"/>
    <rect x="76" y="316" width="180" height="8" rx="2" fill="#7e7e8c"/>
  </g>
  <g transform="translate(700, 420)">
    <rect width="680" height="170" rx="14" fill="#15151D" stroke="#232330"/>
    <text x="28" y="56" font-family="ui-sans-serif, sans-serif" font-size="14" fill="#a78bfa" font-weight="700">Overview</text>
    <rect x="28" y="80" width="624" height="10" rx="2" fill="#3a3a48"/>
    <rect x="28" y="100" width="520" height="10" rx="2" fill="#3a3a48"/>
    <rect x="28" y="120" width="400" height="10" rx="2" fill="#3a3a48"/>
  </g>
  <g transform="translate(700, 610)">
    <rect width="680" height="170" rx="14" fill="#15151D" stroke="#232330"/>
    <rect x="28" y="28" width="140" height="32" rx="6" fill="#a78bfa" fill-opacity="0.3"/>
    <text x="42" y="49" font-family="ui-sans-serif, sans-serif" font-size="13" fill="#a78bfa" font-weight="700">Signal</text>
    <rect x="28" y="80" width="200" height="12" rx="2" fill="#3a3a48"/>
    <rect x="28" y="100" width="340" height="10" rx="2" fill="#3a3a48"/>
    <rect x="28" y="116" width="260" height="10" rx="2" fill="#3a3a48"/>
    <rect x="28" y="140" width="80" height="18" rx="4" fill="url(#accent)"/>
  </g>
  <text x="60" y="860" font-family="ui-monospace, monospace" font-size="11" fill="#7e7e8c">Branded placeholder. See foreplay.com for the actual UI. AffiliateTools.co captures UIs quarterly.</text>
</svg>
